<?xml version="1.0" encoding="iso-8859-1"?>
<!-- Uploaded to: SVG Repo, www.svgrepo.com, Generator: SVG Repo Mixer Tools -->
<svg fill="#000000" height="800px" width="800px" version="1.1" id="Layer_1" xmlns="http://www.w3.org/2000/svg" xmlns:xlink="http://www.w3.org/1999/xlink" 
	 viewBox="0 0 512 512" xml:space="preserve">
<g>
	<g>
		<path d="M455.243,135.423c-26.694-39.053-63.764-69.197-107.202-87.172c-4.684-1.939-9.633-2.894-14.559-2.894
			c-7.429,0-14.83,2.173-21.188,6.422c-10.572,7.067-16.94,18.945-16.94,31.662v39.952c0,14.136,7.849,27.109,20.355,33.696
			c42.657,22.47,69.166,66.157,69.166,114.016c0,70.848-57.712,128.487-128.657,128.487c-71.094,0-128.931-57.639-128.931-128.487
			c0-46.925,25.697-90.205,67.091-112.949c12.178-6.691,19.727-19.483,19.727-33.379V84.513c0-12.809-6.42-24.761-17.118-31.806
			c-6.313-4.158-13.601-6.278-20.94-6.279c-5.098,0-10.211,1.023-15.035,3.096c-42.665,18.343-79.016,48.507-105.127,87.231
			c-26.883,39.868-41.091,86.327-41.091,134.35C14.795,403.935,122.942,512,255.871,512c133.072,0,241.334-108.065,241.334-240.895
			C497.203,222.504,482.694,175.586,455.243,135.423z M255.871,473.915c-111.831,0-203.01-90.981-203.01-202.81
			c0-83.659,50.8-155.632,123.161-186.592v40.264c-50.78,28.261-86.836,83.238-86.836,146.328
			c0,91.848,75.179,166.571,167.028,166.571s166.731-74.724,166.731-166.571c0-64.126-36.188-119.883-89.507-147.71V83.442
			C407.07,113.79,459.1,186.467,459.1,271.105C459.1,382.935,367.701,473.915,255.871,473.915z"/>
	</g>
</g>
<g>
	<g>
		<path d="M256,0c-10.516,0-19.042,8.526-19.042,19.042v147.261c0,10.516,8.526,19.042,19.042,19.042
			c10.516,0,19.042-8.526,19.042-19.042V19.042C275.042,8.526,266.516,0,256,0z"/>
	</g>
</g>
</svg>